# This file uses centimeters as units for non-parametric coordinates.

mtllib CuttingBoardOBJ.mtl
g default
v -24.780022 -1.100000 13.280022
v -24.780022 -0.913732 13.500000
v -25.000000 -0.913732 13.280022
v 25.000000 -0.913732 13.280022
v 24.780022 -0.913732 13.500000
v 24.780022 -1.100000 13.280022
v -25.000000 0.576601 13.280022
v -24.780022 0.576601 13.500000
v -24.780022 0.762870 13.280022
v 24.780022 0.762870 13.280022
v 24.780022 0.576601 13.500000
v 25.000000 0.576601 13.280022
v -25.000000 0.576601 -13.280022
v -24.780022 0.762870 -13.280022
v -24.780022 0.576601 -13.500000
v 24.780022 0.576601 -13.500000
v 24.780022 0.762870 -13.280022
v 25.000000 0.576601 -13.280022
v -25.000000 -0.913732 -13.280022
v -24.780022 -0.913732 -13.500000
v -24.780022 -1.100000 -13.280022
v 24.780022 -1.100000 -13.280022
v 24.780022 -0.913732 -13.500000
v 25.000000 -0.913732 -13.280022
vt 0.078703 0.456867
vt 0.078703 0.025092
vt 0.082282 0.456867
vt 0.082282 0.464009
vt 0.078703 0.492543
vt 0.892252 0.456867
vt 0.888673 0.456867
vt 0.888673 0.025092
vt 0.892252 0.025092
vt 0.892252 0.464009
vt 0.082282 0.492543
vt 0.888673 0.492543
vt 0.895831 0.499688
vt 0.078703 0.938930
vt 0.078703 0.967593
vt 0.082282 0.931769
vt 0.888673 0.931769
vt 0.892252 0.938930
vt 0.892252 0.967593
vt 0.082282 0.967593
vt 0.888673 0.967593
vt 0.888673 0.971175
vt 0.888673 0.464009
vt 0.082282 0.499688
vt 0.888673 0.499688
vt 0.082282 0.938930
vt 0.888673 0.938930
vt 0.082282 0.025092
vt 0.924462 0.499688
vt 0.924462 0.931769
vt 0.047021 0.931769
vt 0.047021 0.499688
vt 0.075183 0.499688
vt 0.075183 0.931769
vt 0.078703 0.464009
vt 0.892252 0.492543
vt 0.895831 0.931769
vt 0.082282 0.971175
vn -0.646210 -0.763160 0.000000
vn -0.646210 -0.763160 0.000000
vn -0.646210 -0.763160 0.000000
vn -0.646210 -0.763160 0.000000
vn 0.000000 -0.763159 0.646211
vn 0.000000 -0.763159 0.646211
vn 0.000000 -0.763159 0.646211
vn 0.000000 -0.763159 0.646211
vn -0.707106 0.000000 0.707107
vn -0.707106 0.000000 0.707107
vn -0.707106 0.000000 0.707107
vn -0.707106 0.000000 0.707107
vn 0.646210 -0.763160 0.000000
vn 0.646210 -0.763160 0.000000
vn 0.646210 -0.763160 0.000000
vn 0.646210 -0.763160 0.000000
vn 0.707106 0.000000 0.707107
vn 0.707106 0.000000 0.707107
vn 0.707106 0.000000 0.707107
vn 0.707106 0.000000 0.707107
vn -0.646210 0.763160 0.000000
vn -0.646210 0.763160 0.000000
vn -0.646210 0.763160 0.000000
vn -0.646210 0.763160 0.000000
vn 0.000000 0.763159 0.646211
vn 0.000000 0.763159 0.646211
vn 0.000000 0.763159 0.646211
vn 0.000000 0.763159 0.646211
vn 0.646210 0.763160 0.000000
vn 0.646210 0.763160 0.000000
vn 0.646210 0.763160 0.000000
vn 0.646210 0.763160 0.000000
vn -0.707106 0.000000 -0.707107
vn -0.707106 0.000000 -0.707107
vn -0.707106 0.000000 -0.707107
vn -0.707106 0.000000 -0.707107
vn 0.000000 0.763159 -0.646211
vn 0.000000 0.763159 -0.646211
vn 0.000000 0.763159 -0.646211
vn 0.000000 0.763159 -0.646211
vn 0.707106 0.000000 -0.707107
vn 0.707106 0.000000 -0.707107
vn 0.707106 0.000000 -0.707107
vn 0.707106 0.000000 -0.707107
vn 0.000000 -0.763159 -0.646211
vn 0.000000 -0.763159 -0.646211
vn 0.000000 -0.763159 -0.646211
vn 0.000000 -0.763159 -0.646211
vn 0.000000 0.000000 1.000000
vn 0.000000 0.000000 1.000000
vn 0.000000 0.000000 1.000000
vn 0.000000 0.000000 1.000000
vn 0.000000 1.000000 0.000000
vn 0.000000 1.000000 0.000000
vn 0.000000 1.000000 0.000000
vn 0.000000 1.000000 0.000000
vn 0.000000 0.000000 -1.000000
vn 0.000000 0.000000 -1.000000
vn 0.000000 0.000000 -1.000000
vn 0.000000 0.000000 -1.000000
vn 0.000000 -1.000000 0.000000
vn 0.000000 -1.000000 0.000000
vn 0.000000 -1.000000 0.000000
vn 0.000000 -1.000000 0.000000
vn 1.000000 0.000000 0.000000
vn 1.000000 0.000000 0.000000
vn 1.000000 0.000000 0.000000
vn 1.000000 0.000000 0.000000
vn -1.000000 0.000000 0.000000
vn -1.000000 0.000000 0.000000
vn -1.000000 0.000000 0.000000
vn -1.000000 0.000000 0.000000
vn -0.542749 -0.640973 0.542749
vn -0.542749 -0.640973 0.542749
vn -0.542749 -0.640973 0.542749
vn 0.542749 -0.640973 0.542749
vn 0.542749 -0.640973 0.542749
vn 0.542749 -0.640973 0.542749
vn -0.542749 0.640973 0.542749
vn -0.542749 0.640973 0.542749
vn -0.542749 0.640973 0.542749
vn 0.542749 0.640973 0.542749
vn 0.542749 0.640973 0.542749
vn 0.542749 0.640973 0.542749
vn -0.542749 0.640973 -0.542749
vn -0.542749 0.640973 -0.542749
vn -0.542749 0.640973 -0.542749
vn 0.542749 0.640973 -0.542749
vn 0.542749 0.640973 -0.542749
vn 0.542749 0.640973 -0.542749
vn -0.542749 -0.640973 -0.542749
vn -0.542749 -0.640973 -0.542749
vn -0.542749 -0.640973 -0.542749
vn 0.542749 -0.640973 -0.542749
vn 0.542749 -0.640973 -0.542749
vn 0.542749 -0.640973 -0.542749
s off
g Cutting_Board
usemtl lambert2SG
f 1/3/1 3/1/2 19/2/3 21/28/4
f 2/4/5 1/3/6 6/7/7 5/23/8
f 3/35/9 2/4/10 8/11/11 7/5/12
f 4/6/13 6/7/14 22/8/15 24/9/16
f 5/23/17 4/10/18 12/36/19 11/12/20
f 7/33/21 9/24/22 14/16/23 13/34/24
f 9/24/25 8/11/26 11/12/27 10/25/28
f 10/25/29 12/13/30 18/37/31 17/17/32
f 13/14/33 15/26/34 20/20/35 19/15/36
f 15/26/37 14/16/38 17/17/39 16/27/40
f 16/27/41 18/18/42 24/19/43 23/21/44
f 21/38/45 20/20/46 23/21/47 22/22/48
f 2/4/49 5/23/50 11/12/51 8/11/52
f 9/24/53 10/25/54 17/17/55 14/16/56
f 15/26/57 16/27/58 23/21/59 20/20/60
f 21/28/61 22/8/62 6/7/63 1/3/64
f 4/29/65 24/30/66 18/37/67 12/13/68
f 19/31/69 3/32/70 7/33/71 13/34/72
f 1/3/73 2/4/74 3/35/75
f 4/10/76 5/23/77 6/7/78
f 7/5/79 8/11/80 9/24/81
f 10/25/82 11/12/83 12/36/84
f 13/34/85 14/16/86 15/26/87
f 16/27/88 17/17/89 18/37/90
f 19/15/91 20/20/92 21/38/93
f 22/22/94 23/21/95 24/19/96
