# This file uses inches as units for non-parametric coordinates.

mtllib RollingMatOBJ.mtl
g default
v -11.430001 0.000000 12.065001
v 11.430001 0.000000 12.065001
v -11.430001 0.252266 12.065001
v 11.430001 0.252266 12.065001
v -11.430001 0.252266 -12.065001
v 11.430001 0.252266 -12.065001
v -11.430001 0.000000 -12.065001
v 11.430001 0.000000 -12.065001
vt 0.494875 0.233528
vt 0.012414 0.234197
vt 0.982660 0.232851
vt 0.500199 0.233521
vt 0.983367 0.742116
vt 0.500906 0.742785
vt 0.988691 0.742108
vt 0.495582 0.742792
vt 0.983374 0.747439
vt 0.500913 0.748109
vt 0.982653 0.227527
vt 0.500192 0.228196
vt 0.013121 0.743462
vt 0.987984 0.232844
vn 0.000000 0.000000 1.000000
vn 0.000000 0.000000 1.000000
vn 0.000000 0.000000 1.000000
vn 0.000000 0.000000 1.000000
vn 0.000000 1.000000 0.000000
vn 0.000000 1.000000 0.000000
vn 0.000000 1.000000 0.000000
vn 0.000000 1.000000 0.000000
vn 0.000000 0.000000 -1.000000
vn 0.000000 0.000000 -1.000000
vn 0.000000 0.000000 -1.000000
vn 0.000000 0.000000 -1.000000
vn 0.000000 -1.000000 0.000000
vn 0.000000 -1.000000 0.000000
vn 0.000000 -1.000000 0.000000
vn 0.000000 -1.000000 0.000000
vn 1.000000 0.000000 0.000000
vn 1.000000 0.000000 0.000000
vn 1.000000 0.000000 0.000000
vn 1.000000 0.000000 0.000000
vn -1.000000 0.000000 0.000000
vn -1.000000 0.000000 0.000000
vn -1.000000 0.000000 0.000000
vn -1.000000 0.000000 0.000000
s off
g Rolling_Mat
usemtl lambert2SG
f 1/12/1 2/11/2 4/3/3 3/4/4
f 3/4/5 4/3/6 6/5/7 5/6/8
f 5/6/9 6/5/10 8/9/11 7/10/12
f 7/8/13 8/13/14 2/2/15 1/1/16
f 2/14/17 8/7/18 6/5/19 4/3/20
f 7/8/21 1/1/22 3/4/23 5/6/24
